<svg width="16" height="16" viewBox="0 0 16 16" fill="none" xmlns="http://www.w3.org/2000/svg">
<path d="M5.39783 10.807C5.57415 10.9311 5.78466 10.9975 6.0003 10.997C6.21595 10.9965 6.42612 10.929 6.60183 10.804C6.77983 10.674 6.91483 10.494 6.98883 10.286L7.43583 8.913C7.55026 8.56871 7.74331 8.2558 7.99968 7.99908C8.25605 7.74236 8.56869 7.54889 8.91283 7.434L10.3038 6.984C10.5095 6.90954 10.6866 6.77243 10.8102 6.59198C10.9338 6.41154 10.9977 6.19686 10.9928 5.9782C10.988 5.75953 10.9146 5.5479 10.7831 5.37313C10.6516 5.19835 10.4686 5.06925 10.2598 5.004L8.88483 4.556C8.54031 4.44177 8.22717 4.2488 7.97026 3.99241C7.71335 3.73603 7.51975 3.42328 7.40483 3.079L6.95283 1.691C6.88004 1.48651 6.74534 1.30979 6.56744 1.18543C6.38955 1.06106 6.17732 0.995239 5.96027 0.997109C5.74323 0.998979 5.53216 1.06845 5.35644 1.19586C5.18072 1.32327 5.04907 1.50229 4.97983 1.708L4.52283 3.108C4.40837 3.44301 4.21926 3.74762 3.9698 3.99881C3.72033 4.25001 3.41704 4.44122 3.08283 4.558L1.69283 5.005C1.48842 5.07793 1.3118 5.2127 1.18748 5.39059C1.06315 5.56848 0.997299 5.78066 0.999058 5.99768C1.00082 6.2147 1.0701 6.42579 1.19729 6.60164C1.32448 6.77749 1.50327 6.90938 1.70883 6.979L3.08283 7.424C3.42879 7.53905 3.74296 7.73359 4.00016 7.992C4.25735 8.25041 4.4504 8.5655 4.56383 8.912L5.01583 10.303C5.08783 10.507 5.22183 10.683 5.39783 10.807ZM5.48283 3.392L6.00983 2.015L6.44983 3.392C6.61342 3.88504 6.89006 4.33298 7.25764 4.70004C7.62522 5.0671 8.07356 5.3431 8.56683 5.506L9.97283 6.036L8.59083 6.483C8.09805 6.64729 7.65035 6.92416 7.28322 7.29163C6.9161 7.6591 6.63966 8.10707 6.47583 8.6L5.95283 9.978L5.50383 8.6C5.34261 8.10708 5.06869 7.65854 4.70383 7.29C4.33511 6.92159 3.88602 6.64366 3.39183 6.478L2.01383 5.956L3.39983 5.506C3.88648 5.3375 4.32786 5.05933 4.68983 4.693C5.04905 4.32519 5.32018 3.87971 5.48283 3.392ZM11.5348 14.849C11.6371 14.9209 11.7547 14.968 11.8784 14.9867C12.002 15.0053 12.1283 14.9949 12.2472 14.9563C12.3662 14.9176 12.4745 14.8519 12.5636 14.7642C12.6528 14.6765 12.7203 14.5693 12.7608 14.451L13.0088 13.689C13.0618 13.531 13.1518 13.387 13.2688 13.269C13.3868 13.149 13.5308 13.061 13.6888 13.009L14.4608 12.757C14.6201 12.702 14.758 12.5981 14.8548 12.4602C14.9515 12.3222 15.0023 12.1572 14.9997 11.9887C14.9972 11.8202 14.9415 11.6568 14.8406 11.5218C14.7397 11.3868 14.5987 11.2871 14.4378 11.237L13.6738 10.987C13.5157 10.9344 13.3719 10.8458 13.2539 10.7281C13.1359 10.6105 13.0469 10.467 12.9938 10.309L12.7418 9.536C12.6877 9.37701 12.5849 9.23908 12.4481 9.14177C12.3112 9.04445 12.1472 8.99267 11.9792 8.99378C11.8113 8.99489 11.6479 9.04882 11.5124 9.14793C11.3768 9.24704 11.2758 9.38631 11.2238 9.546L10.9768 10.308C10.9259 10.4648 10.8394 10.6077 10.724 10.7255C10.6086 10.8433 10.4676 10.9328 10.3118 10.987L9.53883 11.239C9.37977 11.2929 9.24172 11.3955 9.14422 11.5322C9.04673 11.669 8.99474 11.8329 8.99562 12.0009C8.99651 12.1688 9.05022 12.3322 9.14915 12.4679C9.24808 12.6036 9.38721 12.7048 9.54683 12.757L10.3098 13.004C10.4698 13.058 10.6138 13.147 10.7318 13.265C10.8508 13.384 10.9388 13.528 10.9898 13.687L11.2428 14.461C11.2976 14.6175 11.3996 14.753 11.5348 14.849ZM10.6218 12.056L10.4428 11.997L10.6268 11.933C10.93 11.8279 11.205 11.6545 11.4304 11.4261C11.6559 11.1978 11.8257 10.9206 11.9268 10.616L11.9848 10.438L12.0448 10.619C12.1468 10.9256 12.3188 11.2041 12.5473 11.4326C12.7757 11.661 13.0543 11.833 13.3608 11.935L13.5558 11.998L13.3758 12.058C13.0686 12.1601 12.7895 12.3326 12.5608 12.5618C12.3321 12.791 12.1602 13.0705 12.0588 13.378L11.9998 13.56L11.9418 13.38C11.8406 13.0716 11.6685 12.7912 11.4392 12.5615C11.21 12.3317 10.93 12.1589 10.6218 12.057V12.056Z" fill="#CCCCCC"/>
</svg>
