<svg width="16" height="16" viewBox="0 0 16 16" fill="none" xmlns="http://www.w3.org/2000/svg">
<path fill-rule="evenodd" clip-rule="evenodd" d="M7 1H6V4H4.5L4 4.5V8C3.99991 8.97434 4.35545 9.9152 4.99988 10.646C5.6443 11.3768 6.53331 11.8472 7.5 11.969V15H8.5V11.969C9.46669 11.8472 10.3557 11.3768 11.0001 10.646C11.6446 9.9152 12.0001 8.97434 12 8V4.5L11.5 4H10V1H9V4H7V1ZM10.121 10.121C9.70145 10.5404 9.16695 10.826 8.58509 10.9418C8.00324 11.0575 7.40014 10.998 6.85204 10.771C6.30394 10.544 5.83545 10.1596 5.5058 9.66638C5.17614 9.17315 5.00013 8.59325 5 8V5H11V8C10.9998 8.79558 10.6836 9.55852 10.121 10.121Z" fill="#CCCCCC"/>
</svg>
