<svg width="16" height="16" viewBox="0 0 16 16" fill="none" xmlns="http://www.w3.org/2000/svg">
<g clip-path="url(#clip0_681_1062)">
<path fill-rule="evenodd" clip-rule="evenodd" d="M7.70977 2H14.4998L15.0098 2.5V5.7L14 5.5L13.9998 4.99H7.68977H6.82977L6.47977 5H1.98977V12H5.69L6 13H1.50977L1.00977 12.5V1.5L1.50977 1H6.50977L6.85977 1.15L7.70977 2ZM7.48977 4H13.9898L13.9998 3.01H7.49977L7.13977 2.86L6.28977 2.01H1.99977V4.01H6L7.13977 4H7.48977Z" fill="#CCCCCC"/>
<path fill-rule="evenodd" clip-rule="evenodd" d="M13.104 7.22629L12.6206 7.30057L12.6192 7.30078C11.985 7.39609 11.5267 7.43515 10.9996 7.43515C10.4724 7.43515 10.0141 7.39609 9.37992 7.30078L9.37852 7.30057L8.8951 7.22629C8.33574 7.14352 8.07554 7.1392 7.91798 7.17396C7.8003 7.19992 7.71881 7.25034 7.53751 7.43946C7.42778 7.55392 7.31673 7.77383 7.24047 8.12039C7.16608 8.45844 7.1337 8.8764 7.14727 9.34094C7.17447 10.2714 7.38428 11.3359 7.75053 12.2273C8.43236 13.8868 9.70457 14.8571 10.9996 14.8571C12.2946 14.8571 13.5668 13.8868 14.2486 12.2273C14.6149 11.3359 14.8247 10.2714 14.8519 9.34092C14.8655 8.87637 14.8331 8.45842 14.7587 8.12037C14.6824 7.7738 14.5714 7.55389 14.4617 7.43943C14.2804 7.25033 14.1989 7.19991 14.0812 7.17395C13.9236 7.13919 13.6634 7.14352 13.104 7.22629ZM15.0804 6.84625C15.3464 7.12367 15.5042 7.51995 15.5958 7.93616C15.6893 8.36089 15.7237 8.8523 15.7087 9.36597C15.6787 10.3919 15.4498 11.5592 15.0414 12.5531C14.2737 14.4216 12.7495 15.7143 10.9996 15.7143C9.24963 15.7143 7.72541 14.4216 6.9577 12.5531C6.54934 11.5592 6.32048 10.3919 6.2905 9.36598C6.27548 8.85231 6.30989 8.36091 6.40335 7.93618C6.49494 7.51997 6.65282 7.12369 6.91877 6.84628C7.135 6.62073 7.36294 6.41866 7.73332 6.33695C8.0637 6.26406 8.46993 6.29686 9.02179 6.37856L9.02412 6.3789L9.5073 6.45316L9.508 6.45326C10.11 6.54372 10.5246 6.57801 10.9996 6.57801C11.4745 6.57801 11.8891 6.54372 12.4911 6.45326L12.4918 6.45316L12.9773 6.37855C13.5292 6.29685 13.9354 6.26405 14.2658 6.33693C14.6362 6.41863 14.8642 6.62069 15.0804 6.84625Z" fill="#CCCCCC"/>
<path fill-rule="evenodd" clip-rule="evenodd" d="M9.39247 10.1429C9.22905 10.1429 9.08778 10.2302 9.01249 10.3591C8.89307 10.5634 8.63059 10.6323 8.42624 10.5129C8.22188 10.3934 8.15303 10.131 8.27245 9.9266C8.49659 9.54306 8.91495 9.28572 9.39247 9.28572C9.87 9.28572 10.2884 9.54306 10.5125 9.9266C10.6319 10.131 10.5631 10.3934 10.3587 10.5129C10.1544 10.6323 9.89188 10.5634 9.77245 10.3591C9.69717 10.2302 9.5559 10.1429 9.39247 10.1429Z" fill="#CCCCCC"/>
<path fill-rule="evenodd" clip-rule="evenodd" d="M12.6068 10.1429C12.4433 10.1429 12.3021 10.2302 12.2268 10.3591C12.1074 10.5634 11.8449 10.6323 11.6405 10.5129C11.4362 10.3934 11.3673 10.131 11.4867 9.9266C11.7109 9.54306 12.1292 9.28572 12.6068 9.28572C13.0843 9.28572 13.5026 9.54306 13.7268 9.9266C13.8462 10.131 13.7774 10.3934 13.573 10.5129C13.3686 10.6323 13.1062 10.5634 12.9867 10.3591C12.9115 10.2302 12.7702 10.1429 12.6068 10.1429Z" fill="#CCCCCC"/>
<path fill-rule="evenodd" clip-rule="evenodd" d="M9.53281 12.5493C9.62415 12.3309 9.87521 12.2279 10.0936 12.3193C10.371 12.4353 10.677 12.4999 10.9996 12.4999C11.3223 12.4999 11.6283 12.4353 11.9057 12.3193C12.124 12.2279 12.3751 12.3309 12.4664 12.5493C12.5578 12.7676 12.4548 13.0187 12.2364 13.11C11.8558 13.2692 11.4375 13.357 10.9996 13.357C10.5617 13.357 10.1434 13.2692 9.7628 13.11C9.54444 13.0187 9.44147 12.7676 9.53281 12.5493Z" fill="#CCCCCC"/>
</g>
<defs>
<clipPath id="clip0_681_1062">
<rect width="16" height="16" fill="white"/>
</clipPath>
</defs>
</svg>
