<svg width="16" height="16" viewBox="0 0 16 16" fill="none" xmlns="http://www.w3.org/2000/svg">
<path d="M5.36911 7.91998L7.50911 5.77998V11.532H8.50911V5.85198L10.5751 7.91898L11.2821 7.21198L8.32511 4.25598H7.61811L4.66211 7.21198L5.36911 7.91998Z" fill="#CCCCCC"/>
<path d="M14 8C14 8.78793 13.8448 9.56815 13.5433 10.2961C13.2417 11.0241 12.7998 11.6855 12.2426 12.2426C11.6855 12.7998 11.0241 13.2417 10.2961 13.5433C9.56815 13.8448 8.78793 14 8 14C7.21207 14 6.43185 13.8448 5.7039 13.5433C4.97595 13.2417 4.31451 12.7998 3.75736 12.2426C3.20021 11.6855 2.75825 11.0241 2.45672 10.2961C2.15519 9.56815 2 8.78793 2 8C2 6.4087 2.63214 4.88258 3.75736 3.75736C4.88258 2.63214 6.4087 2 8 2C9.5913 2 11.1174 2.63214 12.2426 3.75736C13.3679 4.88258 14 6.4087 14 8ZM13 8C13 6.67392 12.4732 5.40215 11.5355 4.46447C10.5979 3.52678 9.32608 3 8 3C6.67392 3 5.40215 3.52678 4.46447 4.46447C3.52678 5.40215 3 6.67392 3 8C3 9.32608 3.52678 10.5979 4.46447 11.5355C5.40215 12.4732 6.67392 13 8 13C9.32608 13 10.5979 12.4732 11.5355 11.5355C12.4732 10.5979 13 9.32608 13 8Z" fill="#CCCCCC"/>
</svg>
