<svg width="576" height="576" viewBox="0 0 576 576" fill="none" xmlns="http://www.w3.org/2000/svg">
<path fill-rule="evenodd" clip-rule="evenodd" d="M389.007 106.861L365.803 110.426L365.736 110.437C335.296 115.011 313.296 116.886 287.993 116.886C262.69 116.886 240.69 115.011 210.25 110.437L210.183 110.427L186.979 106.861C160.129 102.888 147.64 102.681 140.077 104.349C134.428 105.595 130.517 108.016 121.814 117.093C116.547 122.587 111.217 133.143 107.556 149.778C103.985 166.004 102.431 186.066 103.083 208.364C104.388 253.026 114.459 304.124 132.039 346.911C164.767 426.566 225.833 473.141 287.993 473.141C350.153 473.141 411.219 426.566 443.947 346.911C461.527 304.124 471.598 253.026 472.904 208.363C473.556 186.065 472.002 166.003 468.432 149.777C464.771 133.141 459.441 122.586 454.174 117.092C445.472 108.015 441.56 105.595 435.911 104.349C428.347 102.68 415.857 102.888 389.007 106.861ZM483.873 88.6192C496.639 101.935 504.217 120.957 508.613 140.935C513.099 161.322 514.75 184.91 514.03 209.566C512.59 258.812 501.604 314.84 482.003 362.547C445.153 452.235 371.99 514.284 287.993 514.284C203.996 514.284 130.833 452.235 93.9833 362.547C74.3819 314.84 63.3968 258.812 61.9575 209.566C61.2369 184.91 62.8884 161.323 67.3746 140.936C71.7709 120.958 79.349 101.936 92.1148 88.6204C102.494 77.7944 113.435 68.0947 131.213 64.1726C147.071 60.674 166.57 62.2483 193.06 66.1699L193.171 66.1865L216.364 69.7507L216.398 69.7557C245.296 74.0977 265.196 75.7436 287.993 75.7436C310.79 75.7436 330.69 74.0977 359.589 69.7557L359.622 69.7507L382.926 66.1696C409.416 62.248 428.915 60.6737 444.773 64.1718C462.552 68.0934 473.494 77.7924 483.873 88.6192Z" fill="#E6457A"/>
<path fill-rule="evenodd" clip-rule="evenodd" d="M210.852 246.857C203.008 246.857 196.227 251.051 192.613 257.235C186.881 267.044 174.282 270.349 164.473 264.616C154.664 258.884 151.359 246.285 157.091 236.476C167.85 218.066 187.931 205.714 210.852 205.714C233.774 205.714 253.855 218.066 264.613 236.476C270.346 246.285 267.041 258.884 257.232 264.616C247.423 270.349 234.824 267.044 229.091 257.235C225.478 251.051 218.697 246.857 210.852 246.857Z" fill="#E6457A"/>
<path fill-rule="evenodd" clip-rule="evenodd" d="M365.138 246.857C357.294 246.857 350.513 251.051 346.899 257.235C341.167 267.044 328.568 270.349 318.759 264.616C308.95 258.884 305.645 246.285 311.377 236.476C322.136 218.066 342.217 205.714 365.138 205.714C388.059 205.714 408.14 218.066 418.899 236.476C424.632 246.285 421.327 258.884 411.517 264.616C401.708 270.349 389.11 267.044 383.377 257.235C379.763 251.051 372.983 246.857 365.138 246.857Z" fill="#E6457A"/>
<path fill-rule="evenodd" clip-rule="evenodd" d="M217.589 362.364C221.973 351.883 234.024 346.94 244.505 351.324C257.821 356.894 272.508 359.993 287.996 359.993C303.483 359.993 318.17 356.894 331.486 351.325C341.967 346.94 354.018 351.883 358.402 362.364C362.786 372.846 357.843 384.897 347.362 389.281C329.094 396.922 309.016 401.135 287.996 401.135C266.975 401.135 246.896 396.922 228.628 389.28C218.147 384.896 213.204 372.845 217.589 362.364Z" fill="#E6457A"/>
</svg>
